<?xml version="1.0" standalone="no"?>
<!DOCTYPE svg PUBLIC "-//W3C//DTD SVG 20010904//EN"
 "http://www.w3.org/TR/2001/REC-SVG-20010904/DTD/svg10.dtd">
<svg version="1.0" xmlns="http://www.w3.org/2000/svg"
 width="500.000000pt" height="500.000000pt" viewBox="0 0 500.000000 500.000000"
 preserveAspectRatio="xMidYMid meet">

<g transform="translate(0.000000,500.000000) scale(0.100000,-0.100000)"
fill="#000000" stroke="none">
<path d="M57 3173 c-4 -3 -7 -307 -7 -675 l0 -668 195 0 195 0 0 180 0 181
103 -3 102 -3 120 -177 120 -177 204 -1 203 0 -17 28 c-10 15 -72 105 -137
200 -65 95 -121 178 -124 185 -3 8 12 22 36 36 144 81 233 264 215 444 -25
256 -201 413 -500 447 -99 11 -698 14 -708 3z m708 -317 c81 -35 115 -88 115
-182 0 -78 -33 -134 -97 -165 -42 -21 -66 -24 -195 -27 l-148 -4 0 202 0 203
143 -5 c103 -4 153 -9 182 -22z"/>
<path d="M1320 2235 c0 -78 3 -95 15 -95 10 0 15 10 15 30 0 28 2 30 38 30 50
0 82 23 82 61 0 47 -31 69 -95 69 l-55 0 0 -95z m111 54 c18 -18 19 -23 6 -42
-9 -15 -27 -23 -51 -25 l-36 -3 0 45 c0 44 1 46 30 46 17 0 39 -9 51 -21z"/>
<path d="M1620 2285 c-70 -160 -65 -145 -50 -145 6 0 16 11 22 25 10 22 17 25
64 25 49 0 54 -2 60 -25 3 -14 12 -25 20 -25 19 0 20 -3 -27 100 -24 50 -48
90 -56 90 -7 0 -23 -20 -33 -45z m64 -52 c7 -21 4 -23 -28 -23 -41 0 -43 5
-19 55 17 35 17 36 29 13 6 -13 15 -33 18 -45z"/>
<path d="M1850 2235 c0 -78 3 -95 15 -95 10 0 15 10 15 30 0 26 4 30 28 30 19
0 33 -9 47 -30 29 -43 53 -40 26 3 -20 32 -20 33 -1 45 26 16 26 66 0 92 -15
15 -33 20 -75 20 l-55 0 0 -95z m111 54 c18 -18 19 -23 6 -42 -9 -15 -27 -23
-51 -25 l-36 -3 0 45 c0 44 1 46 30 46 17 0 39 -9 51 -21z"/>
<path d="M2133 2306 c-23 -20 -28 -32 -28 -71 0 -39 5 -51 28 -71 64 -55 167
-11 167 71 0 82 -103 126 -167 71z m96 -3 c53 -14 57 -108 5 -132 -35 -16 -47
-14 -78 10 -19 15 -26 30 -26 54 0 24 7 39 26 54 29 23 36 24 73 14z"/>
<path d="M2410 2235 l0 -95 65 0 c37 0 65 4 65 10 0 6 -22 10 -50 10 l-50 0 0
85 c0 69 -3 85 -15 85 -12 0 -15 -17 -15 -95z"/>
<path d="M2640 2235 l0 -95 70 0 c40 0 70 4 70 10 0 6 -25 10 -55 10 l-55 0 0
35 c0 35 0 35 45 35 25 0 45 5 45 10 0 6 -20 10 -45 10 -43 0 -45 1 -45 30 0
30 1 30 55 30 30 0 55 5 55 10 0 6 -30 10 -70 10 l-70 0 0 -95z"/>
<path d="M3030 2235 c0 -78 3 -95 15 -95 11 0 15 12 15 46 l0 45 53 -3 52 -3
3 -42 c6 -81 22 -43 22 52 0 57 -4 95 -10 95 -5 0 -10 -18 -10 -40 l0 -40 -55
0 -55 0 0 40 c0 29 -4 40 -15 40 -12 0 -15 -17 -15 -95z"/>
<path d="M3343 2312 c-95 -74 -1 -211 110 -161 65 30 65 138 0 168 -35 16 -85
13 -110 -7z m112 -27 c14 -13 25 -36 25 -50 0 -33 -42 -75 -75 -75 -33 0 -75
42 -75 75 0 33 42 75 75 75 14 0 37 -11 50 -25z"/>
<path d="M3620 2235 c0 -111 18 -130 22 -24 l3 72 55 -71 c30 -39 61 -71 68
-72 9 0 12 25 12 95 0 76 -3 95 -15 95 -10 0 -15 -16 -17 -66 l-3 -66 -53 66
c-30 36 -58 66 -63 66 -5 0 -9 -43 -9 -95z"/>
<path d="M3900 2235 c0 -78 3 -95 15 -95 12 0 15 15 15 71 l0 71 56 -69 c79
-96 84 -95 84 21 0 79 -3 96 -15 96 -12 0 -15 -15 -15 -71 l0 -72 -57 72 c-31
39 -62 71 -70 71 -10 0 -13 -22 -13 -95z"/>
<path d="M4190 2235 l0 -95 70 0 c40 0 70 4 70 10 0 6 -25 10 -56 10 l-55 0 3
33 c3 31 5 32 51 35 63 4 61 22 -3 22 -49 0 -50 1 -50 30 0 30 1 30 55 30 30
0 55 5 55 10 0 6 -30 10 -70 10 l-70 0 0 -95z"/>
<path d="M4442 2254 c3 -65 7 -79 27 -95 31 -25 85 -25 111 1 16 16 20 33 20
95 0 43 -4 75 -10 75 -6 0 -10 -28 -10 -65 0 -52 -4 -69 -20 -85 -49 -49 -90
-12 -90 83 0 55 -3 67 -16 67 -14 0 -16 -11 -12 -76z"/>
<path d="M4730 2235 c0 -57 4 -95 10 -95 6 0 10 14 10 30 0 27 3 30 29 30 21
0 37 -9 54 -31 13 -17 30 -30 36 -28 9 3 6 13 -9 31 l-21 27 21 21 c26 26 26
64 0 90 -15 15 -33 20 -75 20 l-55 0 0 -95z m101 65 c21 -12 25 -50 7 -68 -7
-7 -29 -12 -50 -12 -37 0 -38 1 -38 38 0 21 3 42 7 45 10 10 52 8 74 -3z"/>
<path d="M1355 2030 c-8 -13 5 -13 25 0 13 8 13 10 -2 10 -9 0 -20 -4 -23 -10z"/>
<path d="M1503 2000 c-25 -10 -30 -42 -10 -57 6 -6 24 -13 40 -17 30 -7 37
-32 10 -38 -10 -3 -29 -1 -41 4 -17 6 -23 5 -20 -4 7 -19 72 -22 87 -4 19 23
7 43 -34 61 -44 18 -41 41 4 39 17 -1 31 2 31 7 0 5 -4 9 -9 9 -5 0 -15 2 -23
4 -7 3 -23 1 -35 -4z"/>
<path d="M1310 1935 l0 -65 50 0 c28 0 50 5 50 10 0 6 -18 10 -40 10 -33 0
-40 3 -40 20 0 16 7 20 36 20 21 0 33 4 29 10 -3 6 -19 10 -36 10 -22 0 -29 5
-29 19 0 16 8 21 43 24 40 3 40 4 -10 5 l-53 2 0 -65z"/>
<path d="M1660 1935 l0 -65 45 0 c25 0 45 5 45 10 0 6 -18 10 -40 10 -33 0
-40 3 -40 20 0 16 7 20 35 20 19 0 35 5 35 10 0 6 -16 10 -36 10 -28 0 -35 3
-32 18 2 11 16 19 43 23 l40 6 -47 2 -48 1 0 -65z"/>
<path d="M1840 1938 c-28 -62 -31 -90 -6 -55 8 10 26 17 46 17 20 0 38 -7 46
-17 25 -35 22 -7 -6 55 -16 34 -34 62 -40 62 -6 0 -24 -28 -40 -62z m58 7 c11
-24 10 -25 -18 -25 -28 0 -29 1 -18 25 6 14 14 25 18 25 4 0 12 -11 18 -25z"/>
<path d="M2020 1947 c0 -60 12 -77 51 -77 41 0 59 24 59 81 0 66 -18 63 -22
-3 -3 -51 -4 -53 -33 -53 -29 0 -30 2 -33 53 -4 68 -22 68 -22 -1z"/>
<path d="M47 1803 c-4 -3 -7 -53 -7 -110 l0 -103 2475 0 2475 0 0 110 0 110
-2468 0 c-1358 0 -2472 -3 -2475 -7z"/>
</g>
</svg>
